<?xml version="1.0" encoding="UTF-8" standalone="no"?>
<!-- Created with Inkscape (http://www.inkscape.org/) -->

<svg
   width="109.21206mm"
   height="100.45618mm"
   viewBox="0 0 109.21206 100.45618"
   version="1.1"
   id="svg5"
   inkscape:version="1.1 (c68e22c387, 2021-05-23)"
   sodipodi:docname="team_icon.svg"
   xmlns:inkscape="http://www.inkscape.org/namespaces/inkscape"
   xmlns:sodipodi="http://sodipodi.sourceforge.net/DTD/sodipodi-0.dtd"
   xmlns="http://www.w3.org/2000/svg"
   xmlns:svg="http://www.w3.org/2000/svg">
  <sodipodi:namedview
     id="namedview7"
     pagecolor="#ffffff"
     bordercolor="#666666"
     borderopacity="1.0"
     inkscape:pageshadow="2"
     inkscape:pageopacity="0.0"
     inkscape:pagecheckerboard="true"
     inkscape:document-units="mm"
     showgrid="false"
     lock-margins="true"
     fit-margin-top="2.5"
     fit-margin-left="2.5"
     fit-margin-right="2.5"
     fit-margin-bottom="2.5"
     inkscape:showpageshadow="false"
     showborder="true"
     inkscape:zoom="0.5"
     inkscape:cx="184"
     inkscape:cy="159"
     inkscape:window-width="2246"
     inkscape:window-height="1287"
     inkscape:window-x="380"
     inkscape:window-y="13"
     inkscape:window-maximized="0"
     inkscape:current-layer="layer1" />
  <defs
     id="defs2" />
  <g
     inkscape:label="Layer 1"
     inkscape:groupmode="layer"
     id="layer1"
     transform="translate(-7.9656363,-38.541414)">
    <path
       style="fill:#333333;fill-opacity:1;stroke-width:1"
       d="m 60.697005,136.27317 c -1.019286,-0.39039 -1.247646,-1.19136 -0.897798,-3.14901 0.263422,-1.474 0.227423,-2.51011 -0.230491,-6.63441 -0.430126,-3.87396 -1.336403,-12.95896 -1.336403,-13.39676 0,-0.0494 -0.982265,-0.0916 -2.182812,-0.0939 -2.534055,-0.005 -2.970326,-0.1884 -2.78239,-1.17153 0.131273,-0.68671 0.106569,-0.7009 -1.085461,-0.62346 l -1.21979,0.0793 -0.327565,3.96875 c -0.18016,2.18281 -0.561734,6.02647 -0.847945,8.54146 -0.416615,3.66088 -0.464134,4.89202 -0.238312,6.17404 0.36754,2.08656 0.07928,2.75365 -1.357025,3.14041 -0.733303,0.19745 -1.227309,0.20312 -1.573154,0.018 -0.345667,-0.18499 -0.760354,-0.18051 -1.319069,0.0143 -0.660742,0.23033 -1.003544,0.19191 -1.812044,-0.2031 -1.139061,-0.55652 -1.352696,-1.36109 -0.911138,-3.43142 0.191471,-0.89775 0.09744,-2.57582 -0.38086,-6.79682 -0.349305,-3.08262 -0.723516,-6.91446 -0.83158,-8.51519 l -0.196479,-2.91041 -2.003044,-0.0764 -2.003044,-0.0764 -0.486072,4.72706 -0.48607,4.72706 0.589377,0.79717 c 0.818504,1.10709 0.683988,2.61738 -0.298154,3.34755 -0.629367,0.4679 -0.843132,0.49657 -1.727301,0.23167 -0.554975,-0.16628 -1.412717,-0.7188 -1.906093,-1.22784 l -0.897048,-0.92552 -1.108261,1.02156 c -0.609543,0.56186 -1.496683,1.10687 -1.971421,1.21114 -1.954182,0.42922 -3.12272,-1.91662 -1.827443,-3.66858 l 0.596787,-0.80719 -0.729855,-8.74166 c -0.401421,-4.80792 -0.797677,-9.42627 -0.880569,-10.26302 l -0.150714,-1.52135 h -1.549808 -1.549808 l -4e-6,1.52135 c -1e-6,0.83675 -0.290279,4.08748 -0.64506,7.22385 -0.493288,4.36082 -0.583311,5.97731 -0.38262,6.87052 0.532928,2.37189 -0.0276,2.85858 -3.311989,2.87573 -2.834881,0.0148 -3.50322,-0.70785 -2.82896,-3.05886 0.164738,-0.57441 0.03984,-2.68383 -0.399362,-6.74513 -0.351484,-3.25014 -0.706041,-6.53442 -0.787905,-7.2984 l -0.148844,-1.38906 h -1.81743 c -0.999586,0 -1.889079,-0.115936 -1.976651,-0.257628 -0.08757,-0.141695 0.254365,-2.374117 0.75986,-4.960937 1.398364,-7.155992 1.382417,-6.902186 0.56245,-8.95178 -1.085511,-2.713353 -1.377158,-5.948799 -0.859494,-9.534988 0.585874,-4.058721 0.733397,-4.314687 2.972467,-5.157541 0.785658,-0.295744 0.787681,-0.301607 0.198438,-0.575059 -0.651706,-0.302437 -0.776531,-0.966684 -0.275763,-1.467453 0.201746,-0.201745 0.323671,-1.221042 0.330729,-2.764895 0.0089,-1.955642 0.11715,-2.625256 0.540346,-3.343731 1.042596,-1.770051 2.925092,-2.563185 5.113376,-2.15437 1.335113,0.249426 3.510322,-0.29012 2.625686,-0.651284 -0.490469,-0.20024 -0.631606,-1.055331 -0.216529,-1.311863 0.135571,-0.08379 0.239093,-1.154534 0.23005,-2.379437 -0.01288,-1.744735 0.09442,-2.416919 0.495417,-3.103521 0.64508,-1.10453 2.055824,-2.068848 3.02661,-2.068848 0.460733,0 0.84776,-0.191424 1.013621,-0.501337 0.147569,-0.275735 0.632013,-0.628125 1.076542,-0.783089 0.718653,-0.250524 0.772356,-0.339203 0.484524,-0.800095 -0.242801,-0.388787 -0.248515,-0.608949 -0.02286,-0.880846 0.165468,-0.199377 0.295715,-1.19131 0.289439,-2.204297 -0.01371,-2.213069 0.254665,-2.985889 1.359863,-3.915852 1.014692,-0.853807 1.834846,-1.084008 3.119399,-0.875554 2.257745,0.366382 3.114651,1.791672 3.315193,5.514157 0.120964,2.245348 0.08328,2.577626 -0.302753,2.669644 -0.292803,0.06979 -0.174279,0.175697 0.352838,0.315262 1.180105,0.312458 1.645761,0.839838 1.830747,2.073416 l 0.166246,1.108596 1.229529,0.04758 c 0.852961,0.03301 1.620854,-0.150713 2.507234,-0.599876 0.702736,-0.356103 1.277702,-0.712814 1.277702,-0.792689 0,-0.296771 -0.58583,-1.225438 -1.092943,-1.732552 -0.460108,-0.460105 -0.504063,-0.754963 -0.361858,-2.427368 0.08902,-1.047005 0.217461,-2.173695 0.285412,-2.503756 0.154842,-0.75213 2.398818,-3.060774 2.758792,-2.838298 0.146528,0.09056 0.337846,-0.02148 0.425148,-0.248988 0.170836,-0.445194 1.160449,-0.580719 1.160449,-0.15892 0,0.140098 0.711523,0.737911 1.581166,1.328473 0.86964,0.590561 1.686928,1.279607 1.816193,1.531213 0.129267,0.251605 0.312965,1.433321 0.408215,2.626036 0.1726,2.161287 0.170452,2.171365 -0.639744,3.000185 -0.943335,0.965017 -0.913318,1.24126 0.218217,2.008175 0.721831,0.489231 1.128639,0.55029 3.128801,0.469607 1.861132,-0.07507 2.390582,-0.190949 2.779395,-0.608289 0.264168,-0.283551 0.900856,-0.66762 1.414865,-0.853488 0.939345,-0.339671 1.252641,-0.760804 0.565991,-0.760804 -0.570449,0 -0.693481,-0.670703 -0.241421,-1.316108 0.309316,-0.441612 0.367336,-0.946554 0.239098,-2.080895 -0.338735,-2.996359 1.135523,-5.585792 3.424701,-6.015244 2.282163,-0.428137 4.21197,0.433194 5.167648,2.306477 0.420611,0.824465 0.52588,1.494976 0.48713,3.102757 -0.02719,1.128053 0.08585,2.303787 0.251198,2.612741 0.442058,0.825995 0.376785,1.068887 -0.396074,1.473829 l -0.696703,0.36504 1.234239,0.310785 c 0.859157,0.216338 1.320096,0.499223 1.516763,0.93086 0.247973,0.544243 0.421079,0.604459 1.415466,0.492377 0.623117,-0.07023 1.555141,0.01164 2.071161,0.181942 0.834617,0.275448 1.086426,0.234539 2.280332,-0.370459 0.738161,-0.374055 1.342112,-0.745453 1.342112,-0.825328 0,-0.353303 -0.65641,-1.331762 -1.108712,-1.652675 -0.424948,-0.301503 -0.477097,-0.603139 -0.365948,-2.116667 0.07129,-0.970781 0.134599,-2.097544 0.140681,-2.503918 0.01286,-0.85864 2.307133,-3.451481 2.864718,-3.237516 0.187756,0.07205 0.409139,-0.04559 0.491958,-0.261417 0.195229,-0.508752 1.051513,-0.507532 1.246953,0.0018 0.0832,0.216805 0.79272,0.804523 1.576718,1.306042 1.639329,1.048666 1.924865,1.61677 2.15914,4.295862 0.161994,1.852465 0.147569,1.913618 -0.641771,2.721102 -1.033571,1.057329 -1.017669,1.476987 0.07562,1.995789 0.677175,0.321341 1.051383,0.355084 1.604725,0.144705 0.396888,-0.150896 1.071049,-0.274357 1.498139,-0.274357 0.559954,0 0.778873,-0.129136 0.78494,-0.463021 0.01275,-0.701637 0.618418,-1.358401 1.553239,-1.684282 0.774779,-0.27009 0.803322,-0.320208 0.36685,-0.644172 -0.399013,-0.296162 -0.421389,-0.436312 -0.142566,-0.892987 0.18224,-0.298485 0.33073,-1.380744 0.33073,-2.410504 0,-1.132466 0.154291,-2.167182 0.391588,-2.626061 1.149133,-2.222178 4.043831,-2.77126 5.987526,-1.135747 1.058476,0.890648 1.343483,1.687364 1.337731,3.739534 -0.0026,0.928383 0.112535,1.996407 0.255862,2.373386 0.202028,0.531371 0.168815,0.752528 -0.147777,0.984026 -0.464434,0.339602 -0.280903,0.643161 0.388852,0.643161 0.248971,0 0.596469,0.173262 0.772216,0.385027 0.252727,0.304517 0.423132,0.320334 0.814943,0.07564 0.405233,-0.253073 0.605787,-0.209985 1.101916,0.236739 0.333584,0.300367 1.16256,0.920351 1.84217,1.377744 1.32573,0.892246 1.83492,1.887846 1.78833,3.496643 -0.0145,0.500772 0.0558,1.230808 0.1563,1.622301 0.1436,0.559608 0.0366,0.857867 -0.50044,1.394909 -1.26201,1.262008 -1.33822,1.657416 -0.41178,2.136498 0.74915,0.387397 0.89917,0.3882 1.69808,0.0091 1.15715,-0.549106 2.40008,-0.516989 3.7523,0.09696 1.45176,0.659146 1.92314,1.442164 2.2386,3.718514 l 0.26107,1.883931 -0.98254,1.480251 c -1.14501,1.725046 -1.15195,1.712322 1.62575,2.980955 2.78242,1.270791 3.52744,2.667597 3.63204,6.809586 0.0941,3.725682 -0.22642,5.309306 -1.28973,6.372616 l -0.90051,0.900507 -0.006,3.214687 c -0.004,2.062279 -0.47169,7.369474 -1.30515,14.804624 l -1.2992,11.58995 0.6437,0.94854 c 0.71601,1.05511 0.79547,1.75136 0.30906,2.70833 -0.70814,1.39322 -2.71219,1.16425 -4.37647,-0.50002 l -0.85865,-0.85865 -0.52344,0.66545 c -0.2879,0.366 -1.03857,0.91483 -1.66817,1.21961 -0.94601,0.45795 -1.28596,0.50491 -1.95836,0.27051 -1.490948,-0.51974 -1.72594,-2.56205 -0.45623,-3.96506 0.39838,-0.44021 0.32524,-2.4641 -0.29359,-8.12433 l -0.15187,-1.38906 H 99.410596 98.29362 l -0.341995,4.03489 c -0.188095,2.21919 -0.512606,5.46365 -0.721132,7.2099 -0.235545,1.9725 -0.314994,4.04156 -0.209775,5.46303 0.163169,2.20427 0.146402,2.30304 -0.457954,2.69801 -0.433237,0.28315 -1.275606,0.40976 -2.722703,0.40925 -3.178336,-0.001 -3.780996,-0.53527 -3.300925,-2.92573 0.231888,-1.15465 0.158437,-2.56438 -0.397621,-7.63146 -0.375135,-3.41835 -0.713243,-6.87003 -0.751359,-7.67039 l -0.0693,-1.45521 -1.357186,-0.0789 c -1.229989,-0.0715 -1.370113,-0.0219 -1.495091,0.52917 -0.07585,0.33442 -0.653172,5.34387 -1.282941,11.13212 -0.924951,8.50129 -1.082249,10.61176 -0.81838,10.98021 0.816864,1.14062 1.18069,2.15127 1.013809,2.81618 -0.248187,0.98885 -1.0956,1.74098 -1.961536,1.74098 -0.824317,0 -3.157222,-1.3629 -3.395419,-1.98363 -0.233288,-0.60795 -0.571727,-0.4896 -1.871332,0.65436 -0.668885,0.58877 -1.600107,1.12795 -2.114899,1.22453 -2.114851,0.39675 -3.188401,-1.92267 -1.821921,-3.93628 l 0.662827,-0.97674 -0.512752,-6.02393 c -0.282012,-3.31317 -0.583224,-6.64901 -0.669356,-7.413 l -0.156607,-1.38906 h -2.310673 -2.310674 l -0.33196,4.0349 c -0.182578,2.21919 -0.592722,6.36452 -0.911434,9.21184 -0.482706,4.31242 -0.529587,5.45477 -0.280736,6.84063 0.362548,2.01904 0.240443,2.57991 -0.663096,3.04588 -0.77742,0.40093 -5.089604,0.49863 -6.034492,0.13673 z m 2.297808,-12.15748 v -11.1125 h -1.719792 c -0.945885,0 -1.719707,0.0893 -1.719601,0.19844 5.29e-4,0.61062 1.128591,11.83105 1.480534,14.7271 0.337921,2.78064 0.35691,3.72484 0.102069,5.07544 -0.172196,0.91261 -0.234556,1.78636 -0.138573,1.94166 0.09598,0.1553 0.584203,0.28236 1.084937,0.28236 h 0.910426 z m 3.115955,10.89001 c 0.268322,-0.17028 0.274948,-0.50763 0.0322,-1.63952 -0.339035,-1.58087 -0.297389,-2.2912 0.674206,-11.49945 0.368506,-3.4925 0.671261,-6.91555 0.672785,-7.60677 l 0.0028,-1.25677 h -1.5875 -1.5875 v 11.1125 11.1125 l 0.727604,-0.004 c 0.400182,-0.002 0.879628,-0.10053 1.065434,-0.21844 z m -20.872219,-3.31423 c 0.21499,-0.25904 0.280509,-3.20665 0.230833,-10.38489 l -0.06936,-10.02318 -1.536036,-0.0798 -1.536036,-0.0798 0.151445,1.535 c 0.08329,0.84425 0.458584,4.51156 0.83398,8.14958 0.845084,8.18989 0.799034,7.38469 0.527505,9.22369 -0.18012,1.21991 -0.151122,1.60008 0.135916,1.78188 0.522338,0.33084 0.917345,0.29249 1.261753,-0.1225 z m 2.922868,0.11307 c 0.321527,-0.20345 0.330814,-0.50828 0.06023,-1.97681 -0.175956,-0.95495 -0.257088,-2.00575 -0.180295,-2.3351 0.247536,-1.06163 1.459716,-13.4519 1.459716,-14.92046 v -1.42106 H 48.04586 46.590652 v 10.27465 c 0,5.65106 0.07938,10.35403 0.17639,10.45104 0.248263,0.24827 0.944888,0.21217 1.39438,-0.0723 z m 28.731508,-0.85197 c 0.45869,-0.3143 1.091134,-0.94675 1.405435,-1.40543 0.562486,-0.8209 0.571452,-1.00264 0.571452,-11.58377 0,-7.18187 0.09166,-10.80643 0.276173,-10.92047 0.151897,-0.0939 0.449553,-0.0268 0.661458,0.14907 0.325935,0.27051 0.385286,2.0015 0.385286,11.23679 v 10.91702 l 1.051663,0.95012 c 2.355107,2.12769 3.998741,1.05392 2.037625,-1.33117 l -0.615032,-0.748 1.268553,-11.1125 c 0.697704,-6.11187 1.218073,-11.35062 1.156377,-11.64167 -0.0617,-0.29104 -0.01103,-0.97628 0.11261,-1.52276 0.136824,-0.60481 0.125642,-1.05487 -0.02858,-1.15018 -0.512524,-0.31676 -0.746038,-1.45709 -0.511831,-2.49946 l 0.234865,-1.045303 h -5.29736 -5.297358 l 0.173527,1.085173 c 0.09902,0.61922 0.04313,1.44579 -0.130159,1.92501 -0.244139,0.67516 -0.08984,3.32574 0.786908,13.51797 l 1.090594,12.67814 -0.662035,0.69102 c -0.881528,0.92012 -0.932524,2.38185 -0.0831,2.38185 0.318418,0 0.954233,-0.25715 1.412922,-0.57145 z m 16.264387,-16.0973 v -9.26041 h -1.322917 c -0.727604,0 -1.322916,0.0438 -1.322916,0.0973 0,0.44032 1.12804,11.35118 1.346607,13.02492 0.187582,1.43647 0.194194,2.61246 0.02008,3.57042 -0.30076,1.65474 -0.24066,1.82824 0.633304,1.82824 h 0.645843 v -9.26042 z m 2.563812,6.41615 c -0.01696,-1.56435 0.232664,-5.22189 0.554747,-8.12787 0.322085,-2.90598 0.585608,-5.79324 0.585608,-6.41614 v -1.13255 h -1.190625 -1.190625 v 9.26041 9.26042 h 0.635875 c 0.633929,0 0.635784,-0.009 0.60502,-2.84427 z m -66.281663,2.10914 c 0.389503,-0.25688 0.95505,-0.78089 1.25677,-1.16447 0.533201,-0.67785 0.548583,-0.9794 0.548583,-10.75394 0,-10.31222 0.02057,-10.52294 0.992187,-10.16563 0.256645,0.0944 0.33073,2.37293 0.33073,10.17189 0,9.76821 0.0154,10.06985 0.548582,10.74768 0.669898,0.85164 1.813632,1.63092 2.397121,1.63327 0.743261,0.003 0.755697,-0.98778 0.02571,-2.04847 l -0.683052,-0.99249 1.268995,-11.56249 c 1.20513,-10.980588 1.245857,-11.585635 0.809242,-12.022248 -0.360061,-0.36006 -0.427058,-0.7358 -0.308975,-1.732822 l 0.150775,-1.273066 h -4.762023 -4.762023 l 0.169518,0.90361 c 0.09323,0.496985 0.03057,1.300657 -0.139257,1.785937 -0.251293,0.718072 -0.120047,3.033721 0.705006,12.438899 l 1.013781,11.55657 -0.597952,0.69516 c -0.733663,0.85294 -0.817631,2.25398 -0.13493,2.25141 0.254661,-0.001 0.781705,-0.21192 1.171209,-0.4688 z m 73.454429,-5.72202 c 0.39295,-0.20446 1.01212,-0.69015 1.37592,-1.07931 l 0.66146,-0.70758 0.13229,-10.23162 c 0.11455,-8.859597 0.18551,-10.231631 0.52917,-10.231631 0.34349,0 0.41467,1.352314 0.52916,10.054161 0.13162,10.00307 0.13543,10.05856 0.74847,10.91806 0.69107,0.9689 2.0169,1.76193 2.58271,1.54481 0.49987,-0.19182 0.475,-1.3332 -0.0383,-1.75923 -0.93407,-0.77521 -0.92279,-1.13288 0.41331,-13.10267 0.72651,-6.508679 1.32093,-12.352237 1.32093,-12.985692 v -1.151731 h -4.83269 -4.83269 l -0.43331,1.256771 c -0.38693,1.122209 -0.39716,1.63921 -0.0956,4.828646 0.18577,1.964531 0.61644,4.975883 0.95705,6.691896 0.49981,2.518 0.55746,3.21905 0.29879,3.63324 -0.2527,0.40464 -0.23433,1.497 0.0868,5.16286 l 0.40733,4.64964 -0.67265,0.7994 c -0.65425,0.77752 -0.85465,1.54694 -0.49627,1.90532 0.26136,0.26136 0.56401,0.21783 1.35811,-0.19534 z m -84.878242,-9.03659 v -8.58334 h -1.216604 -1.216603 l 0.15624,1.52135 c 0.08593,0.83675 0.402332,3.84307 0.70311,6.68073 0.663394,6.25871 0.659495,6.18425 0.403964,7.71458 -0.180035,1.0782 -0.144569,1.24608 0.283626,1.34252 0.269166,0.0606 0.578689,0.0646 0.687829,0.009 0.109141,-0.0558 0.198438,-3.96386 0.198438,-8.6847 z m 2.492941,7.45199 c -0.114585,-0.59751 -0.203054,-1.44356 -0.196598,-1.88013 0.01022,-0.6907 0.86612,-9.31013 1.280808,-12.89843 l 0.145241,-1.25677 h -1.199738 -1.199738 v 8.55486 c 0,4.70517 0.06643,8.62128 0.147613,8.70247 0.08119,0.0812 0.391318,0.0839 0.68918,0.006 0.480707,-0.12571 0.518156,-0.26371 0.333232,-1.22799 z m 51.923565,-4.98898 c -0.360479,-1.47974 -2.030569,-10.58538 -2.270427,-12.378792 -0.146669,-1.096645 -0.349065,-3.921162 -0.44977,-6.276705 -0.166058,-3.884139 -0.141346,-4.298831 0.265456,-4.454935 0.246705,-0.09467 0.532717,-0.08852 0.635582,0.01365 0.102865,0.102185 0.247883,1.456346 0.322265,3.009249 l 0.135239,2.823456 0.497922,-1.586965 c 0.426323,-1.358765 0.474946,-2.10067 0.338135,-5.159375 -0.172527,-3.857246 -0.635727,-7.810891 -0.995606,-8.497993 -0.1232,-0.235217 -0.67637,-0.500007 -1.22927,-0.588417 -0.552899,-0.08841 -1.562669,-0.514242 -2.243931,-0.946285 l -1.238657,-0.785532 -1.382059,0.755782 -1.382062,0.755785 -1.398066,-0.789019 -1.398069,-0.789022 -0.997611,0.677894 c -0.548685,0.372843 -1.564193,0.866082 -2.256682,1.096092 -1.388769,0.461272 -1.419635,0.521565 -2.09042,4.083097 -0.44173,2.345373 -0.376851,8.221718 0.111004,10.054167 l 0.387421,1.455208 0.03331,-2.513541 c 0.0358,-2.70111 0.237011,-3.353398 0.95004,-3.079785 0.408784,0.156866 0.438412,0.700352 0.330261,6.057826 -0.112393,5.567463 -0.178107,6.18898 -1.216121,11.50151 -0.603517,3.08881 -1.097306,5.73795 -1.097306,5.88699 0,0.17954 3.000608,0.27097 8.892225,0.27097 h 8.892225 z m -18.586482,-1.92869 c 0.09366,-0.37318 -0.178821,-2.46124 -0.612851,-4.69636 -1.152856,-5.936831 -1.340398,-7.557224 -1.415087,-12.226511 -0.06525,-4.079515 -0.04848,-4.233333 0.461454,-4.233333 0.482748,0 0.540772,0.220485 0.661459,2.513541 0.200228,3.804335 0.599204,2.239574 0.674624,-2.645833 0.03482,-2.255573 0.202374,-4.857345 0.372345,-5.781717 0.372144,-2.023891 0.145386,-2.395715 -1.942854,-3.185782 -0.744191,-0.281559 -1.541057,-0.586629 -1.770816,-0.677937 -0.296318,-0.117758 -0.630918,0.171239 -1.151136,0.994244 -1.71586,2.714566 -3.890082,2.646754 -5.923515,-0.184753 l -0.851086,-1.185112 -1.384509,0.55567 c -0.761481,0.305618 -1.524674,0.685123 -1.695984,0.843341 -1.001776,0.925222 -1.567423,9.06417 -0.847463,12.193921 l 0.365186,1.5875 0.132291,-2.513542 c 0.120687,-2.293056 0.178711,-2.513541 0.661459,-2.513541 0.512011,0 0.528277,0.167259 0.501774,5.159374 -0.02824,5.319276 -0.09625,5.827845 -2.113886,15.80885 l -0.173826,0.8599 h 7.941889 7.94189 z m 19.071174,-4.15673 c -0.102211,-1.05502 -0.292891,-2.03133 -0.423727,-2.16958 -0.147937,-0.15631 -0.23789,-0.12556 -0.23789,0.0813 0,0.65157 0.608841,4.00648 0.727086,4.00648 0.0662,0 0.03674,-0.8632 -0.06547,-1.91823 z m -17.26485,-6.680725 c 0.04502,-1.497118 -0.07416,-2.141746 -0.621826,-3.363441 l -0.677519,-1.511358 -0.608645,1.468466 c -0.667189,1.609709 -0.663826,1.667431 0.444807,7.639668 l 0.442034,2.38125 0.482727,-2.38125 c 0.265502,-1.30969 0.507791,-3.214689 0.538422,-4.233335 z m 45.440534,5.886975 c -10e-4,-0.0364 -0.42884,-2.20927 -0.95018,-4.828641 -0.761718,-3.827042 -0.987505,-5.697959 -1.149515,-9.525 -0.110884,-2.619375 -0.144571,-4.917173 -0.07486,-5.106218 0.236543,-0.64144 0.983689,-0.209481 1.056077,0.610563 0.03843,0.435319 0.147118,1.208207 0.241548,1.71753 l 0.17168,0.926042 0.20876,-1.058334 c 0.28121,-1.425628 -0.34984,-9.419023 -0.80127,-10.149443 -0.100386,-0.16243 -0.733361,-0.461105 -1.40661,-0.663723 l -1.224089,-0.368398 -0.317908,0.767493 c -0.420833,1.015984 -1.715717,2.079696 -2.531668,2.079696 -1.039341,0 -2.11179,-0.695094 -3.016808,-1.95531 l -0.83807,-1.166992 -1.230839,0.533828 c -1.552927,0.673521 -1.643841,0.762582 -1.874528,1.836357 -0.158583,0.738153 -0.07064,1.023276 0.531775,1.724133 1.132504,1.317564 1.631688,3.957947 1.767068,9.346734 0.201263,8.011372 -0.576144,12.562283 -2.303907,13.486953 -0.263814,0.14118 -0.532569,0.61719 -0.597236,1.05779 l -0.117573,0.80109 h 7.230216 c 3.976621,0 7.229197,-0.0298 7.227937,-0.0662 z m -27.778967,-2.93451 c 0,-0.19515 -0.177306,-0.93929 -0.394013,-1.653644 -0.216704,-0.714351 -0.402156,-2.251321 -0.412115,-3.415487 l -0.0181,-2.116667 -0.644096,1.41819 c -0.600464,1.322115 -0.625102,1.546165 -0.363681,3.307292 0.197795,1.332496 0.43968,2.025526 0.820941,2.352126 0.646102,0.55346 1.011069,0.59251 1.011069,0.10819 z m 13.73244,-0.37278 c 0.676188,-0.67661 0.751369,-0.97867 1.072687,-4.309867 0.419979,-4.35403 0.241157,-12.188509 -0.323133,-14.157023 -0.602247,-2.100926 -0.835498,-2.363633 -3.16209,-3.561421 -1.205479,-0.620609 -2.38401,-1.294677 -2.618957,-1.497928 -0.352875,-0.305263 -0.637535,-0.313282 -1.636491,-0.0461 -0.954214,0.255214 -1.359693,0.25492 -1.922232,-0.0013 -0.586393,-0.267179 -0.789106,-0.255887 -1.142166,0.06363 -0.236085,0.213651 -1.202913,0.741381 -2.148507,1.172729 -2.765052,1.261321 -2.669873,1.092544 -2.2641,4.014978 0.19195,1.382447 0.363296,2.364713 0.380775,2.182812 0.01749,-0.181901 0.287369,-0.330729 0.599765,-0.330729 0.547608,0 0.56151,0.07358 0.387377,2.050521 -0.460478,5.227825 -0.673788,9.471961 -0.523349,10.412766 l 0.16478,1.030462 h 5.649685 5.649685 l 0.174947,-0.697052 c 0.231487,-0.922319 -0.06585,-5.80626 -0.591375,-9.713584 -0.308883,-2.296573 -0.343088,-3.2131 -0.127945,-3.428244 0.522425,-0.522425 0.999183,0.371319 1.313217,2.461797 0.840574,5.595599 0.979501,10.753672 0.336275,12.485195 -0.124976,0.336423 -0.308816,1.058158 -0.408538,1.603868 -0.220887,1.20874 0.117584,1.28732 1.13969,0.26458 z M 25.423981,98.468405 c 0,-0.136009 -0.185283,-1.118274 -0.41174,-2.182812 -1.057658,-4.971894 -1.628533,-9.250169 -1.682037,-12.605594 l -0.05623,-3.526313 0.611982,0.08673 c 0.550647,0.07804 0.625899,0.259099 0.750838,1.806525 l 0.138855,1.719791 0.215984,-1.470324 c 0.128464,-0.874527 0.09465,-2.697149 -0.08345,-4.497916 -0.49124,-4.966959 -0.492554,-4.971756 -1.43573,-5.244613 -0.454629,-0.131525 -1.017941,-0.317786 -1.251805,-0.413914 -0.307556,-0.126423 -0.518786,0.05114 -0.763418,0.641731 -0.470745,1.13648 -1.480983,1.856912 -2.603885,1.856912 -0.792667,0 -1.145943,-0.216136 -2.215719,-1.35559 l -1.272695,-1.35559 -1.25433,0.541938 c -1.181403,0.510431 -1.273255,0.623855 -1.579862,1.950902 -0.462491,2.00174 -0.667449,6.200796 -0.378719,7.758964 l 0.245137,1.322917 0.03112,-1.468437 c 0.03227,-1.522529 0.361914,-2.162953 0.989402,-1.922164 0.287902,0.110479 0.364635,0.995566 0.364635,4.205949 0,3.539119 -0.120004,4.69968 -0.926042,8.955772 -0.509323,2.68936 -0.926042,5.014098 -0.926042,5.166082 0,0.184838 2.234025,0.276339 6.746875,0.276339 4.006903,0 6.746875,-0.100425 6.746875,-0.247285 z m 13.072784,-2.35957 c 0.07669,-0.124081 -0.03156,-0.451503 -0.240554,-0.727604 -0.360037,-0.475647 -0.380426,-0.463801 -0.3884,0.225605 -0.0081,0.698339 0.337262,0.973968 0.628954,0.501999 z m -1.291749,-3.80929 c -0.102811,-0.327422 -0.293274,-2.8575 -0.423248,-5.622396 -0.129977,-2.764896 -0.268103,-5.32474 -0.306949,-5.688542 -0.05376,-0.50348 0.06561,-0.680873 0.499801,-0.742746 0.353549,-0.05038 0.634278,-0.335682 0.738362,-0.75039 0.09236,-0.368006 0.461592,-0.96276 0.820505,-1.321673 0.950026,-0.950026 0.551092,-1.434042 -2.463058,-2.988355 -2.268236,-1.169665 -2.680192,-1.300136 -3.44163,-1.089991 -0.497112,0.137197 -1.205007,0.141201 -1.664517,0.0094 -0.637385,-0.182798 -0.973085,-0.111681 -1.655203,0.350655 -0.470613,0.318979 -1.358689,0.806402 -1.973503,1.083164 -1.107164,0.498393 -1.117845,0.516403 -1.117845,1.885151 0,2.04548 0.246313,2.969104 0.8327,3.122448 0.377189,0.09864 0.475859,0.29568 0.376088,0.751039 -0.286239,1.306406 -0.679622,6.514475 -0.679622,8.997648 v 2.59988 h 5.322526 5.322524 z M 25.501303,88.000066 c 0.132634,-2.353924 0.108436,-2.572856 -0.219328,-1.984375 -0.202625,0.363802 -0.371318,1.137708 -0.374873,1.719791 -0.0063,1.033108 0.264263,3.13264 0.38465,2.984717 0.03326,-0.04086 0.127556,-1.264925 0.209551,-2.720133 z m 85.647217,-1.653646 -5.3e-4,-1.256771 -2.18236,-0.03835 c -1.20029,-0.02109 -2.99427,-0.22965 -3.98661,-0.463462 -2.64844,-0.624018 -2.94625,-0.481397 -3.01198,1.442444 l -0.0537,1.572909 h 4.6178 4.6178 l -5.3e-4,-1.256771 z m 1.37305,-3.176744 c 0.61116,-0.615844 1.11113,-3.972586 0.89409,-6.002808 -0.38861,-3.635274 -0.71843,-4.169852 -3.19206,-5.173826 l -1.43654,-0.583047 -0.70681,0.555972 c -0.93221,0.733285 -2.64888,0.727794 -4.17436,-0.01334 l -1.17184,-0.56932 -1.41493,0.794718 c -2.017739,1.133287 -3.187078,2.989744 -1.883172,2.989744 0.234614,0 0.657512,0.20836 0.939772,0.463021 0.28227,0.254662 0.82743,0.463021 1.21146,0.463021 0.67174,0 0.70125,0.06281 0.77703,1.653646 l 0.0788,1.653645 1.37644,2.65e-4 c 0.75704,1.85e-4 2.3587,-0.136919 3.55925,-0.304678 l 2.18281,-0.305017 v -0.853551 c 0,-0.908831 0.49179,-1.536999 0.96605,-1.233938 0.44612,0.285081 0.70512,4.944338 0.29369,5.283274 -0.18354,0.151197 -1.2862,0.553458 -2.45037,0.893916 -2.04511,0.598094 -2.08536,0.625137 -1.19062,0.800045 1.60919,0.314571 4.82726,0.0062 5.34134,-0.511821 z m -6.26738,-1.002133 c 3.05435,-0.881377 3.57187,-1.113732 3.57187,-1.603671 0,-0.370052 -0.19456,-0.411237 -1.25677,-0.266026 -0.69122,0.09449 -2.54285,0.246195 -4.11472,0.337111 -2.33283,0.134927 -2.83113,0.235196 -2.71198,0.545698 0.0803,0.209219 0.14597,0.738312 0.14597,1.175766 0,0.788625 0.01,0.793785 1.12448,0.608642 0.61846,-0.102698 2.07698,-0.461584 3.24115,-0.79752 z m -58.810415,-2.70029 c 0.223287,-0.254661 0.600845,-0.847767 0.839017,-1.318014 0.413443,-0.816303 0.4089,-0.870069 -0.100385,-1.188124 -0.748716,-0.46758 -0.679128,-1.223841 0.128031,-1.391425 0.363803,-0.07553 0.929349,-0.19172 1.256771,-0.258194 0.575506,-0.116837 0.594458,-0.216776 0.569645,-3.00359 -0.02955,-3.318954 -0.47712,-4.611071 -1.87589,-5.415614 -1.188879,-0.683818 -3.340579,-0.694837 -4.242141,-0.02172 -1.613988,1.205014 -1.793484,1.718731 -1.797534,5.144511 -0.0031,2.598198 0.06714,3.175355 0.396875,3.262371 0.220334,0.05815 0.72803,0.178588 1.128212,0.267647 0.871628,0.193974 1.001138,1.0877 0.19471,1.343652 -0.517954,0.164394 -0.519809,0.191609 -0.06615,0.970881 1.05941,1.81978 2.724978,2.570054 3.568835,1.607624 z m 7.484652,-1.190625 c 0.143647,-0.327422 0.842253,-0.883319 1.552456,-1.235326 l 1.291275,-0.640014 -0.214032,-2.270403 c -0.117716,-1.248722 -0.222541,-3.401496 -0.232942,-4.783944 -0.01709,-2.27238 0.04958,-2.630048 0.694962,-3.727855 l 0.713878,-1.214313 -0.90864,-0.4333 -0.908637,-0.433299 -0.395264,0.764355 c -0.558271,1.079578 -1.661366,1.869412 -2.610847,1.869412 -0.631042,0 -1.086409,-0.293634 -2.054559,-1.324842 l -1.243827,-1.324842 -1.187903,0.509195 c -1.527635,0.654821 -1.700572,0.969891 -0.791831,1.442624 0.918347,0.477729 1.721368,1.349324 2.349325,2.549948 0.366059,0.699887 0.497504,1.604508 0.538231,3.704167 0.02964,1.527969 0.136819,3.165345 0.238181,3.638611 0.173876,0.811845 0.135496,0.870249 -0.6789,1.033126 -0.804801,0.160962 -0.829765,0.197083 -0.369022,0.533988 0.271796,0.198741 0.933066,0.47953 1.46949,0.623974 0.536425,0.144444 1.254477,0.495234 1.595676,0.779534 0.789567,0.657905 0.838758,0.65531 1.15293,-0.0608 z m 21.557566,-2.119619 c -0.0013,-0.180277 -0.42673,-0.861415 -0.945149,-1.513639 -0.739458,-0.930312 -0.903952,-1.329436 -0.763313,-1.852083 0.0986,-0.366422 0.162925,-1.232488 0.142949,-1.924593 -0.04237,-1.467807 0.21621,-2.041823 1.60564,-3.564363 0.561427,-0.615211 1.020776,-1.232182 1.020776,-1.371045 0,-0.331159 -1.277527,-1.22344 -2.116667,-1.478373 -0.363802,-0.110524 -1.137708,-0.448752 -1.719791,-0.751619 -0.703371,-0.365974 -1.457667,-0.529658 -2.248959,-0.48803 -0.654843,0.03445 -1.358831,-0.0489 -1.564417,-0.185219 -0.258377,-0.171324 -0.626004,-0.0717 -1.190625,0.322648 -0.449257,0.313776 -0.865712,0.59994 -0.925455,0.63592 -0.05974,0.03598 0.08454,0.278857 0.320625,0.539727 0.236085,0.26087 0.67944,1.039919 0.985234,1.73122 0.681123,1.539785 0.745744,4.858155 0.137451,7.058131 -0.221302,0.800365 -0.403778,1.839894 -0.405505,2.310064 -0.0026,0.718772 0.112686,0.880139 0.724463,1.013693 1.406335,0.307009 2.115275,0.685876 2.448499,1.308512 l 0.336429,0.628624 2.080193,-1.045898 c 1.144106,-0.575247 2.079035,-1.193401 2.077622,-1.373677 z m 10.855262,-0.650624 c 0.361174,-0.185774 1.073401,-0.501909 1.582724,-0.702521 l 0.926041,-0.364747 -0.727604,-0.290581 c -0.809532,-0.3233 -0.897921,-0.717857 -0.32917,-1.46935 0.289538,-0.382567 0.342876,-0.962372 0.221077,-2.40324 -0.187645,-2.219833 0.144267,-3.521857 1.261446,-4.948386 0.420683,-0.53717 0.764876,-1.078119 0.764876,-1.20211 0,-0.353479 -2.230141,-0.882514 -2.345697,-0.556448 -0.220091,0.621015 -1.724896,2.089252 -2.285492,2.229953 -0.836914,0.210052 -2.08338,-0.498352 -2.951202,-1.677256 -0.401818,-0.545857 -0.74676,-1.023676 -0.766538,-1.061821 -0.117557,-0.226726 -2.538235,1.103519 -2.759107,1.516222 -0.409511,0.765179 -0.07583,1.263078 1.616853,2.412555 0.855239,0.580784 1.719231,1.319225 1.919981,1.640982 0.20075,0.321757 0.438621,1.61829 0.528606,2.881183 l 0.163607,2.296173 -0.933307,0.989592 c -0.513318,0.544277 -0.893937,1.118343 -0.845822,1.275704 0.04811,0.157361 0.855016,0.656045 1.793112,1.108189 l 1.705632,0.822079 0.40165,-1.079198 c 0.229497,-0.61663 0.68312,-1.223976 1.058334,-1.416974 z m -46.528489,0.832491 c -0.971156,-0.40834 -0.980657,-0.440849 -0.39161,-1.33985 0.347488,-0.530331 0.449025,-1.335538 0.463021,-3.671837 0.0173,-2.886425 0.04608,-3.03226 0.811678,-4.112666 0.436563,-0.616068 1.194716,-1.33335 1.684785,-1.593959 l 0.891032,-0.473834 -0.989491,-0.413436 c -0.544219,-0.22739 -1.079434,-0.413436 -1.189366,-0.413436 -0.109932,0 -0.35392,-0.185612 -0.542195,-0.412471 -0.248653,-0.299607 -0.604655,-0.36815 -1.301038,-0.250497 -0.527296,0.08909 -1.29745,0.03319 -1.711455,-0.124215 -0.590444,-0.224487 -0.844587,-0.203786 -1.178753,0.09601 -0.234309,0.21021 -0.926639,0.581551 -1.538509,0.825201 l -1.11249,0.443 0.527417,0.566116 c 0.600785,0.644868 0.678253,0.942087 0.896958,3.441356 0.151935,1.736246 0.126888,1.841895 -0.64514,2.721187 -0.441767,0.503145 -0.803213,1.028398 -0.803213,1.167233 0,0.138832 0.942797,0.726451 2.095103,1.305819 1.31072,0.659017 2.422994,1.443951 2.970895,2.096564 0.737,0.87785 0.956871,0.99977 1.38743,0.769342 0.472469,-0.252857 0.44758,-0.300757 -0.325059,-0.625628 z M 95.06668,76.82142 c 0.903939,-1.036293 1.073597,-1.664105 0.593172,-2.194967 -0.637011,-0.70389 -0.323022,-1.230159 0.852474,-1.428811 l 1.010611,-0.170786 -0.02572,-2.56867 c -0.01863,-1.86051 -0.149817,-2.808655 -0.475863,-3.439157 -1.466009,-2.834945 -5.683414,-2.328826 -6.521233,0.782595 -0.152755,0.56729 -0.192006,1.898689 -0.0915,3.103819 l 0.175998,2.110396 0.953826,0.225573 c 1.109818,0.262467 1.468099,1.083199 0.574831,1.316794 -0.538414,0.140798 -0.543237,0.174511 -0.120288,0.841145 1.186823,1.870612 2.252406,2.363613 3.073694,1.422069 z M 64.908012,75.53368 c 1.085038,-0.549831 1.463906,-0.631563 1.839698,-0.396875 0.26029,0.162554 0.522452,0.295553 0.582579,0.295553 0.120829,0 0.835175,-3.232648 1.081643,-4.894792 0.380325,-2.564884 -0.826191,-5.282017 -2.790098,-6.283443 -1.815314,-0.925655 -4.785111,-0.312702 -6.006192,1.239652 -1.199248,1.524598 -1.310105,2.921656 -0.688573,8.677621 l 0.163825,1.517166 0.771533,-0.455756 c 0.75039,-0.443267 0.805685,-0.436766 2.018104,0.237271 0.685615,0.381164 1.339829,0.707202 1.453806,0.724527 0.11398,0.01733 0.822132,-0.280088 1.573675,-0.660924 z m -2.866689,-0.47951 c -2.114962,-0.920663 -3.237039,-4.970798 -2.062736,-7.445454 0.594751,-1.253346 0.957538,-1.355252 2.44077,-0.685606 0.680302,0.307141 1.691908,0.635811 2.248012,0.730379 1.096742,0.186502 2.494785,1.20438 2.804633,2.04198 0.327766,0.886031 -0.172519,3.079869 -0.928288,4.070736 -1.158753,1.519203 -2.855907,2.004695 -4.502391,1.287965 z m 3.080245,-1.672333 c 0.513601,-0.460116 0.905568,-1.144855 1.0662,-1.862579 0.404738,-1.808449 0.06649,-2.148981 -2.928372,-2.948131 -0.654843,-0.174739 -1.418113,-0.339553 -1.696156,-0.366257 -1.279686,-0.122907 -0.990248,3.788039 0.381892,5.160179 0.980037,0.980035 2.094637,0.985927 3.176436,0.0168 z m 15.569406,2.412817 c 0.338791,-0.237299 0.7836,-0.832612 0.988462,-1.322916 0.204864,-0.490305 0.549473,-0.891464 0.765802,-0.891464 0.438409,0 0.537313,-0.673531 0.135379,-0.921938 -0.145108,-0.08968 -0.188372,-0.666996 -0.0989,-1.31977 0.223694,-1.632027 -0.01865,-2.318324 -1.021326,-2.892351 -0.478936,-0.274185 -1.117904,-0.720709 -1.419937,-0.992272 -0.509349,-0.457971 -0.608891,-0.46395 -1.373531,-0.0825 -0.453414,0.226192 -1.203675,0.765566 -1.667248,1.19861 -0.815637,0.761918 -0.837163,0.837745 -0.666361,2.347436 0.111389,0.984546 0.07498,1.62283 -0.09871,1.730171 -0.415499,0.256794 -0.329909,0.932611 0.118112,0.932611 0.216329,0 0.560938,0.401159 0.765802,0.891464 0.442524,1.059108 1.346274,1.75437 2.280457,1.75437 0.371803,0 0.953201,-0.194154 1.291995,-0.431454 z M 27.667078,73.922031 c 0.803588,-0.394115 1.461069,-0.843237 1.461069,-0.998048 0,-0.154813 -0.356616,-0.714113 -0.792481,-1.24289 -0.773273,-0.938115 -0.788411,-1.011722 -0.624572,-3.036848 0.185405,-2.29169 0.543517,-3.221349 1.544059,-4.008375 0.366709,-0.288454 0.666744,-0.656154 0.666744,-0.817112 0,-0.160957 0.284918,-0.29265 0.633151,-0.29265 0.568552,0 0.954349,-0.431554 0.954349,-1.067537 0,-0.126778 -0.434474,-0.350471 -0.965497,-0.497093 -0.929254,-0.25658 -1.001874,-0.225595 -1.93456,0.82541 -1.391916,1.568494 -2.359424,1.529323 -3.886467,-0.15735 -1.029198,-1.136784 -1.185639,-1.220963 -1.736354,-0.9343 -0.332886,0.173277 -0.63985,0.343446 -0.682144,0.378155 -0.04229,0.03471 0.183423,0.504317 0.501593,1.043573 0.462832,0.784442 0.591507,1.465559 0.643602,3.406783 0.03581,1.334474 0.148783,2.740063 0.251047,3.123529 0.160601,0.60222 0.08339,0.733102 -0.566706,0.960649 l -0.752638,0.26344 0.744828,0.296119 c 0.409656,0.162867 0.90703,0.296122 1.105276,0.296122 0.471496,0 1.457187,1.262311 1.457187,1.866124 0,0.505143 0.25749,1.308876 0.419321,1.308876 0.05397,0 0.755604,-0.322459 1.559193,-0.716577 z M 20.33468,72.204624 c 0.405631,-0.668912 0.402242,-0.748279 -0.05344,-1.251808 -0.598071,-0.660863 -0.222814,-1.266287 0.862629,-1.391732 0.702363,-0.08117 0.708883,-0.101491 0.78543,-2.447791 0.08699,-2.666332 -0.188432,-3.612348 -1.277454,-4.3878 -1.706632,-1.215229 -4.339284,-0.328182 -5.004046,1.686066 -0.311137,0.942755 -0.173497,5.028973 0.172002,5.106329 0.116312,0.02604 0.538899,0.119563 0.939081,0.207825 0.82996,0.183052 0.918618,0.559118 0.294415,1.248855 -0.406514,0.449193 -0.365741,0.546116 0.662147,1.574001 0.999337,0.999339 1.143135,1.063561 1.640742,0.732792 0.299975,-0.1994 0.740299,-0.683932 0.978499,-1.076737 z m 12.50694,0.444796 c 0.427228,-0.220927 0.851639,-0.699955 0.943135,-1.064506 0.0915,-0.364551 0.415793,-0.837531 0.720661,-1.051068 0.404861,-0.283575 0.475431,-0.467122 0.261754,-0.680799 -0.180076,-0.180076 -0.24013,-0.870638 -0.156204,-1.796185 l 0.136344,-1.503636 -1.485964,-0.964463 c -1.396765,-0.906567 -1.530501,-0.942245 -2.227878,-0.594348 -0.408052,0.203563 -1.020742,0.666916 -1.361534,1.029672 -0.541797,0.576716 -0.601041,0.839579 -0.471691,2.092859 0.09497,0.920202 0.0383,1.542931 -0.158309,1.73954 -0.231929,0.231931 -0.223523,0.35736 0.03464,0.516914 0.187484,0.115872 0.543676,0.615273 0.791538,1.109782 0.396355,0.790765 1.363272,1.552561 1.985153,1.564026 0.116367,0.0021 0.561126,-0.176858 0.988354,-0.397788 z m 68.88674,-2.125797 1.71259,-0.941361 -0.5687,-0.977556 c -0.31278,-0.537655 -0.73769,-1.106792 -0.94425,-1.264746 -0.54163,-0.414183 -0.37457,-4.017278 0.21945,-4.733028 0.18178,-0.219029 0.0229,-0.487107 -0.53158,-0.897069 -0.7145,-0.528248 -0.89283,-0.554133 -1.847354,-0.26815 -0.820044,0.245692 -1.212066,0.245665 -1.751501,-1.17e-4 -0.561814,-0.25598 -0.777132,-0.244371 -1.123699,0.06059 -0.235791,0.207484 -1.26215,0.801422 -2.280796,1.319863 l -1.852083,0.94262 1.107255,0.01301 c 3.39513,0.0399 5.393848,2.78709 4.96195,6.820079 l -0.189388,1.768494 0.687755,-0.450633 c 0.378267,-0.247852 1.458421,-0.874247 2.400351,-1.391994 z m 5.561,0.515387 c 0.22935,-0.08801 0.35393,-0.262054 0.27686,-0.386766 -0.0771,-0.124714 -0.45361,-0.107571 -0.83673,0.03809 -0.46991,0.17866 -0.95326,0.175372 -1.48533,-0.01011 -0.96041,-0.334801 -0.97435,-0.335227 -0.97435,-0.02977 0,0.44046 2.15997,0.718402 3.01955,0.388551 z m -0.29182,-1.811761 c 0.21135,-0.211352 0.44369,-0.324863 0.5163,-0.252246 0.0726,0.07261 0.21134,-0.290711 0.30827,-0.807394 0.0969,-0.516684 0.39941,-1.147339 0.67217,-1.401457 0.42962,-0.400253 0.46968,-0.684683 0.29959,-2.127225 -0.24857,-2.108185 -0.80751,-2.725961 -2.62427,-2.900528 -1.24957,-0.120068 -1.37097,-0.07364 -2.29469,0.877542 -0.80113,0.824943 -0.94827,1.139595 -0.82385,1.761734 0.0833,0.416579 0.006,0.989661 -0.17082,1.273515 -0.27432,0.439257 -0.23426,0.577771 0.26905,0.930303 0.32524,0.227812 0.594,0.615812 0.59724,0.862221 0.0115,0.876387 1.43092,2.141799 2.42261,2.159764 0.24427,0.0044 0.61705,-0.164877 0.8284,-0.376229 z M 48.839605,62.848845 c 0.712065,-0.309992 0.914212,-0.495916 0.617839,-0.568257 -0.627512,-0.15317 -0.82886,-0.873822 -0.383452,-1.372431 0.272409,-0.304944 0.37167,-1.065732 0.351903,-2.697121 -0.02331,-1.92344 0.06547,-2.42999 0.578139,-3.298906 0.360439,-0.610897 0.491887,-1.064472 0.324646,-1.120219 -0.154567,-0.05152 -0.694002,-0.373927 -1.198745,-0.716454 -0.81325,-0.551887 -1.027327,-0.589135 -1.880685,-0.327232 -0.703728,0.21598 -1.170998,0.217025 -1.735687,0.0039 -0.463431,-0.174926 -0.833306,-0.193624 -0.9241,-0.04672 -0.08326,0.134723 -0.621173,0.484618 -1.195358,0.777545 l -1.043972,0.532595 0.529463,0.568313 c 0.618675,0.66407 0.93151,2.034801 0.686858,3.009573 -0.111593,0.444622 -0.07535,0.625625 0.103172,0.515291 0.480647,-0.297056 0.304088,1.340207 -0.216567,2.008285 -0.270468,0.347047 -0.697897,1.032749 -0.949846,1.523783 -0.548577,1.06914 -0.372142,1.307753 1.464535,1.980654 0.667459,0.244535 1.441365,0.612997 1.719791,0.818805 0.453927,0.335531 0.588246,0.296451 1.299983,-0.378227 0.436562,-0.413831 1.27,-0.959753 1.852083,-1.213158 z m 6.502291,1.041778 c 0.538957,-0.872051 0.552821,-0.980508 0.153871,-1.203772 -0.898001,-0.502546 -0.18135,-1.540364 1.065507,-1.543014 0.414705,-8.73e-4 0.488071,-0.263248 0.5364,-1.918229 0.03079,-1.054465 -0.06075,-2.355001 -0.203435,-2.890081 -0.603092,-2.261705 -3.214616,-3.078147 -5.021919,-1.570004 l -0.916048,0.764414 -0.04739,2.781533 -0.04739,2.781534 0.907285,0.170208 c 0.993293,0.186343 1.263711,0.978802 0.483082,1.415665 -0.36635,0.20502 -0.308486,0.369195 0.424283,1.203772 1.114832,1.269726 1.884524,1.272028 2.665753,0.008 z m 23.579624,-0.03379 c 0.201507,-0.424773 0.840711,-0.966829 1.535792,-1.302384 0.94084,-0.454195 1.093486,-0.61278 0.727605,-0.755911 -0.533268,-0.208612 -0.608968,-0.931071 -0.146064,-1.393975 0.206441,-0.206441 0.294789,-1.078251 0.253373,-2.500312 -0.05141,-1.765522 0.03985,-2.383974 0.476888,-3.231673 l 0.540472,-1.048319 -0.727699,-0.596708 c -0.400235,-0.328189 -0.906293,-0.530926 -1.124575,-0.450526 -0.936759,0.345039 -2.083427,0.402153 -2.593488,0.129177 -0.403431,-0.215911 -0.597881,-0.215578 -0.73189,0.0012 -0.100372,0.162404 -0.695817,0.522347 -1.323213,0.799874 l -1.140719,0.504595 0.404513,0.96814 c 0.222483,0.532477 0.358362,1.36348 0.301951,1.846674 -0.05641,0.483202 -0.0074,0.878542 0.108892,0.878542 0.444571,0 0.184351,1.315379 -0.401638,2.03022 -0.802521,0.978988 -1.382194,2.436413 -1.078751,2.712209 0.130151,0.118289 0.783003,0.418172 1.450784,0.666406 0.667782,0.248234 1.560751,0.679824 1.984375,0.959089 0.998318,0.658121 1.073769,0.647116 1.483392,-0.216362 z m 7.477064,0.56325 c 0.235564,-0.0904 0.607115,-0.510147 0.825669,-0.932783 0.349393,-0.675651 0.350621,-0.835173 0.01019,-1.321229 -0.487588,-0.696127 -0.277233,-1.284576 0.461086,-1.289852 1.079352,-0.0077 1.185283,-0.282559 1.139762,-2.957196 -0.0414,-2.432405 -0.08176,-2.600849 -0.803672,-3.353994 -1.479,-1.542994 -3.794241,-1.275033 -4.954291,0.5734 -0.445548,0.709938 -0.518604,1.21109 -0.451321,3.096008 0.08311,2.328364 0.219639,2.634945 1.176449,2.641782 0.716237,0.0051 0.986208,0.661998 0.480086,1.168121 -0.513731,0.513731 -0.509812,0.528168 0.435525,1.604849 0.860719,0.980303 0.985571,1.037575 1.68053,0.770894 z m -49.928249,-1.61171 c 0.181901,-0.07295 0.330729,-0.185336 0.330729,-0.249753 0,-0.295857 -0.907817,-1.867771 -1.372744,-2.376951 -0.456534,-0.499989 -0.494832,-0.792265 -0.326995,-2.495543 0.172434,-1.749933 0.284841,-2.032009 1.209503,-3.035149 0.560671,-0.608256 1.017778,-1.330731 1.015791,-1.605499 -0.0078,-1.079817 -0.341868,-1.666638 -1.099019,-1.930582 -0.723778,-0.252311 -0.863032,-0.191673 -1.78461,0.777107 -1.09474,1.150811 -1.682405,1.283239 -2.676284,0.603087 -0.709403,-0.485473 -0.712509,-0.488622 -1.355011,-1.373819 -0.424564,-0.584939 -0.459294,-0.589109 -1.297269,-0.155775 l -0.861026,0.445253 0.839493,0.657002 c 1.312575,1.027244 1.726166,2.057547 1.785103,4.446899 0.02872,1.164166 0.132583,2.421617 0.230813,2.794335 0.143843,0.545783 0.06025,0.730479 -0.429536,0.949027 -0.572945,0.255655 -0.540238,0.292996 0.565174,0.645248 1.169881,0.372796 1.393744,0.687687 2.005352,2.820775 0.09065,0.316146 0.290721,0.259261 3.220536,-0.915662 z m 25.541562,-0.105158 c 1.012256,-0.262919 1.602784,-0.261901 2.945939,0.0051 1.487001,0.295569 1.782154,0.281877 2.570416,-0.119243 0.489787,-0.249234 0.924002,-0.481416 0.964925,-0.51596 0.15095,-0.127417 -0.884026,-1.840358 -1.35886,-2.248984 -0.732906,-0.630717 -0.377992,-4.213189 0.523544,-5.284605 0.810295,-0.96298 0.796385,-1.546036 -0.04451,-1.865743 -1.608712,-0.61163 -1.807353,-0.569685 -2.570964,0.54288 -1.370227,1.99639 -2.834452,1.937539 -4.650377,-0.186911 l -0.994085,-1.162982 -1.244267,0.550397 c -1.385265,0.61277 -1.461375,0.795769 -0.751824,1.807709 0.788406,1.124395 1.132578,2.536194 1.08793,4.462694 -0.02289,0.987722 0.04094,2.172949 0.141859,2.633838 0.161824,0.739069 0.110048,0.850757 -0.438645,0.94623 -0.579845,0.100893 -0.559191,0.138372 0.303916,0.551485 0.95549,0.45733 1.359356,0.444016 3.515001,-0.11588 z m 30.223445,0.02255 c 0.09218,-0.149144 0.983314,-0.68196 1.980303,-1.184037 0.99699,-0.502076 1.873388,-1.011041 1.947545,-1.131033 0.07416,-0.119992 -0.282768,-0.745891 -0.793173,-1.390888 -0.726654,-0.91827 -0.888976,-1.317276 -0.748115,-1.838942 0.09894,-0.366421 0.165579,-1.177277 0.148088,-1.801902 -0.03653,-1.304552 0.249743,-1.967914 1.352481,-3.133971 0.431747,-0.456539 0.68535,-0.886562 0.563565,-0.955607 -0.526722,-0.298615 -1.676641,-0.452308 -1.676641,-0.224092 0,0.1371 -0.366347,0.615618 -0.814101,1.063374 -1.149004,1.149004 -1.941351,1.0705 -3.278291,-0.324807 -1.085728,-1.133128 -1.095909,-1.137028 -2.005166,-0.768101 -1.070253,0.434249 -0.941467,0.323557 -1.141322,0.980969 -0.120881,0.397628 0.03072,0.638536 0.609877,0.969143 1.212041,0.691885 1.680951,1.891303 1.896761,4.85169 0.106085,1.455209 0.231971,2.876995 0.279749,3.159524 0.05531,0.327066 -0.136858,0.628015 -0.528947,0.828371 -0.598133,0.305642 -0.582935,0.326025 0.529167,0.70972 1.476703,0.50949 1.480839,0.50996 1.67822,0.190589 z M 27.131919,62.568004 c 0.235565,-0.0904 0.595809,-0.488282 0.800542,-0.884192 0.32273,-0.624092 0.320136,-0.771945 -0.01951,-1.111588 -0.540493,-0.540494 -0.206598,-1.232008 0.642274,-1.330182 0.653033,-0.07552 0.718348,-0.199019 0.882748,-1.669059 0.230814,-2.0639 -0.105681,-3.552376 -0.97197,-4.299479 -1.280646,-1.104452 -3.71331,-0.580989 -4.340869,0.934072 -0.175471,0.423626 -0.286093,1.667499 -0.249694,2.807648 0.06467,2.025762 0.0733,2.04865 0.829686,2.199926 0.92716,0.185432 1.235061,0.826773 0.614701,1.280391 -0.418334,0.305894 -0.387829,0.408674 0.381294,1.284656 0.459805,0.523689 0.873468,0.952161 0.919252,0.952161 0.04578,0 0.275978,-0.07396 0.511544,-0.164354 z m 13.63214,-0.684172 c 0.299212,-0.321168 0.665628,-1.035543 0.814255,-1.5875 0.154689,-0.574468 0.433824,-1.003557 0.652849,-1.003557 0.309994,0 0.352306,-0.313882 0.222911,-1.653646 -0.203782,-2.109963 -0.578286,-2.688082 -1.999009,-3.08586 -2.165117,-0.606195 -3.74837,0.632584 -4.006631,3.134892 -0.126409,1.22479 -0.06806,1.534055 0.365692,1.938154 0.283859,0.264453 0.516104,0.703726 0.516104,0.976164 0,0.656653 1.463718,1.865296 2.258952,1.865296 0.346969,0 0.875662,-0.262774 1.174877,-0.583943 z m 31.374214,-0.147713 c 0.532074,-0.36949 1.17529,-1.504819 1.17529,-2.074482 0,-0.348631 0.205861,-0.625562 0.527558,-0.709688 0.463028,-0.121084 0.509484,-0.294766 0.379793,-1.419921 -0.08127,-0.705079 -0.202803,-1.553545 -0.270073,-1.885481 -0.167722,-0.827577 -1.603275,-1.643252 -2.894161,-1.64445 -1.615763,-0.0015 -2.62713,1.185176 -2.874237,3.372449 -0.122555,1.084785 -0.09251,1.653645 0.08735,1.653645 0.150794,0 0.455189,0.433235 0.676431,0.962745 0.221244,0.529509 0.657778,1.184353 0.970076,1.455208 0.57459,0.498339 1.708782,0.646355 2.221976,0.289975 z m 28.190137,-2.244907 c 0.42922,-0.472942 1.04147,-1.134398 1.36055,-1.4699 0.45602,-0.479475 0.50498,-0.656471 0.2288,-0.827157 -0.25167,-0.155541 -0.29959,-0.523547 -0.16891,-1.297066 0.26004,-1.539119 0.0184,-2.030239 -1.49937,-3.047525 l -1.343029,-0.900162 -1.058458,0.562832 c -1.493215,0.794016 -1.887643,1.494814 -1.682731,2.989804 0.110778,0.808211 0.05663,1.356017 -0.159798,1.616802 -0.268711,0.323776 -0.221361,0.464794 0.264335,0.787285 0.325424,0.216073 0.59168,0.562617 0.59168,0.770097 0,0.586356 1.328007,1.674886 2.043363,1.674886 0.389163,0 0.951379,-0.339601 1.423568,-0.859896 z M 63.897336,52.657891 c 0.794991,-0.944792 0.833951,-1.19144 0.276291,-1.7491 -0.578824,-0.578824 -0.355404,-0.964601 0.703702,-1.215074 l 0.915789,-0.216579 0.06285,-2.247774 c 0.04616,-1.651038 -0.05379,-2.493568 -0.376497,-3.173628 -0.746622,-1.573391 -2.688108,-2.151959 -4.3454,-1.29494 -1.244272,0.643438 -1.603566,1.654037 -1.544212,4.343484 l 0.052,2.356271 0.882727,0.165601 c 0.973023,0.18254 1.228484,0.980168 0.452932,1.414189 -0.370306,0.207233 -0.292796,0.392172 0.559954,1.336064 0.544364,0.602545 1.143907,1.095537 1.332319,1.095537 0.188413,0 0.650807,-0.366323 1.027547,-0.814051 z M 33.752558,50.930116 c 0.326952,-0.498992 0.371953,-0.769727 0.162721,-0.978959 -0.551794,-0.551794 -0.324701,-1.247847 0.458207,-1.404429 0.727808,-0.145562 0.748717,-0.197657 0.796733,-1.985132 0.03176,-1.182375 -0.08855,-2.102243 -0.338071,-2.584759 -0.780906,-1.510107 -3.055778,-1.715166 -4.113276,-0.370774 -0.429315,0.545785 -0.532391,1.073322 -0.532391,2.724737 v 2.047913 l 0.79375,0.15875 c 0.568364,0.113673 0.79375,0.310885 0.79375,0.694531 0,0.294679 -0.119063,0.535781 -0.264584,0.535781 -0.411582,0 -0.31477,0.394002 0.283787,1.154944 0.695746,0.884497 1.382976,0.887091 1.959374,0.0074 z m 13.963298,0.16476 c 0.367075,-0.28874 0.742588,-0.824521 0.834472,-1.190625 0.09189,-0.366103 0.343392,-0.665643 0.558901,-0.665643 0.411564,0 0.532212,-0.564522 0.193397,-0.904919 -0.109141,-0.10965 -0.198438,-0.86187 -0.198438,-1.671599 0,-1.458199 -0.01214,-1.480825 -1.274556,-2.372925 -1.176062,-0.831083 -1.344427,-0.877629 -2.178677,-0.602302 -1.463577,0.483025 -2.05301,1.452257 -1.885714,3.100778 0.07733,0.762019 0.03031,1.453655 -0.104497,1.536969 -0.393478,0.243182 -0.282083,0.913998 0.151778,0.913998 0.218281,0 0.396875,0.169459 0.396875,0.376575 0,0.207116 0.308239,0.742898 0.684977,1.190625 0.811975,0.964975 1.829657,1.069239 2.821482,0.289068 z m 32.252083,0.239102 c 0.293793,-0.157234 0.704284,-0.693015 0.912199,-1.190625 0.207915,-0.497609 0.555021,-0.904745 0.77135,-0.904745 0.431133,0 0.540086,-0.671817 0.148228,-0.913998 -0.134806,-0.08331 -0.179901,-0.783177 -0.100217,-1.555252 l 0.144881,-1.403772 -1.377871,-0.989903 c -1.590574,-1.142713 -2.410904,-1.13171 -3.514161,0.04713 -0.844994,0.902887 -1.042212,1.563773 -0.765974,2.566832 0.131691,0.478192 0.108543,1.040512 -0.05823,1.41445 -0.222901,0.499796 -0.18899,0.669853 0.17409,0.873043 0.247999,0.138789 0.450911,0.38874 0.450911,0.555447 0,0.166708 0.319931,0.637042 0.710959,1.045186 0.746181,0.778845 1.607677,0.935811 2.503834,0.456202 z m 13.61948,-0.389164 c 0.333031,-0.508269 0.36722,-0.750127 0.13839,-0.978958 -0.579964,-0.579964 -0.346366,-1.261153 0.489836,-1.428393 l 0.79375,-0.15875 V 46.3308 c 0,-1.661757 -0.101941,-2.17751 -0.540631,-2.735213 -0.7103,-0.903001 -2.047099,-1.152018 -3.14276,-0.58543 -1.076106,0.556476 -1.37667,1.388718 -1.300634,3.601398 0.05938,1.727939 0.08637,1.793044 0.802942,1.936358 0.51934,0.103868 0.7415,0.308825 0.7415,0.684081 0,0.294679 -0.119062,0.535781 -0.264583,0.535781 -0.438671,0 -0.30108,0.412517 0.384241,1.15199 0.814504,0.878864 1.334016,0.88572 1.897949,0.02505 z"
       id="path856"
       inkscape:label="team" />
  </g>
</svg>
